<?xml version="1.0" encoding="UTF-8"?>
<svg width="58px" height="58px" viewBox="0 0 58 58" version="1.1" xmlns="http://www.w3.org/2000/svg" xmlns:xlink="http://www.w3.org/1999/xlink">
    <title>Shape</title>
    <g id="Page-1" stroke="none" stroke-width="1" fill="none" fill-rule="evenodd">
        <g id="noun-mic-6216670" fill="#FFFFFF" fill-rule="nonzero">
            <path d="M29,0 C13.0092773,0 0,13.0092773 0,29 C0,44.9902344 13.0092773,58 29,58 C44.9902344,58 58,44.9902344 58,29 C58,13.0092773 44.9902344,0 29,0 Z M29,54 C15.2148438,54 4,42.7851563 4,29 C4,15.2148437 15.2148438,4 29,4 C42.7851562,4 54,15.2148438 54,29 C54,42.7851562 42.7851563,54 29,54 Z M23,26 L23,18 C23,14.6914062 25.6914063,12 29,12 C32.3085937,12 35,14.6914063 35,18 L35,26 C35,29.3085938 32.3085937,32 29,32 C25.6914063,32 23,29.3085938 23,26 Z M42,25 L42,26 C42,32.4862061 37.2194824,37.8626709 31,38.8297729 L31,42 L33,42 C34.1044922,42 35,42.8955078 35,44 C35,45.1044922 34.1044922,46 33,46 L29,46 L25,46 C23.8955078,46 23,45.1044922 23,44 C23,42.8955078 23.8955078,42 25,42 L27,42 L27,38.8297729 C20.7802124,37.8626709 16,32.4862671 16,26 L16,25 C16,23.8955078 16.8955078,23 18,23 C19.1044922,23 20,23.8955078 20,25 L20,26 C20,30.9628906 24.0375977,35 29,35 C33.9628906,35 38,30.9628906 38,26 L38,25 C38,23.8955078 38.8955078,23 40,23 C41.1044922,23 42,23.8955078 42,25 Z" id="Shape"></path>
        </g>
    </g>
</svg>